<?xml version="1.0" standalone="no"?>
<!DOCTYPE svg PUBLIC "-//W3C//DTD SVG 20010904//EN"
 "http://www.w3.org/TR/2001/REC-SVG-20010904/DTD/svg10.dtd">
<svg version="1.0" xmlns="http://www.w3.org/2000/svg"
 width="275.000000pt" height="183.000000pt" viewBox="0 0 275.000000 183.000000"
 preserveAspectRatio="xMidYMid meet">

<g transform="translate(0.000000,183.000000) scale(0.100000,-0.100000)"
fill="#000000" stroke="none">
<path d="M0 915 l0 -915 1375 0 1375 0 0 915 0 915 -1375 0 -1375 0 0 -915z
m1519 651 c67 -20 85 -20 144 -2 l46 14 11 -32 c26 -79 130 -156 212 -156 l36
0 -1 -49 c-2 -53 -10 -61 -65 -61 -19 0 -22 4 -17 20 6 18 2 20 -42 20 -87 0
-156 58 -169 141 l-6 37 -39 -20 c-80 -41 -175 -16 -215 57 -10 19 -21 35 -25
35 -3 0 -16 -12 -30 -26 -50 -55 -131 -69 -205 -35 l-42 19 -6 -38 c-7 -43
-45 -94 -87 -115 -32 -17 -102 -20 -128 -5 -17 8 -18 5 -13 -35 10 -92 -48
-173 -135 -191 -28 -5 -31 -9 -22 -25 5 -11 6 -19 3 -19 -14 0 -99 44 -106 54
-13 19 -9 23 35 40 85 32 146 119 147 206 l0 46 41 -4 c93 -9 191 49 225 133
17 42 21 45 44 38 14 -4 62 -8 107 -8 75 0 85 2 125 31 l43 31 40 -43 c29 -30
55 -46 94 -58z m-55 -168 c41 -17 95 -14 134 6 28 14 32 15 32 1 0 -33 34 -95
61 -113 l29 -18 -60 -10 -60 -10 0 29 c0 22 -4 27 -17 23 -10 -3 -62 -15 -116
-26 -54 -11 -106 -24 -117 -30 -26 -14 -30 -13 -30 10 0 11 -1 20 -2 20 -2 0
-54 -11 -116 -24 -62 -13 -121 -22 -131 -19 -11 3 -44 -2 -74 -11 -30 -9 -57
-16 -59 -16 -1 0 -3 22 -3 49 l0 49 52 -5 c41 -5 58 -1 86 16 36 22 67 73 67
110 0 21 1 21 33 5 65 -35 167 -12 200 43 7 11 15 4 35 -26 14 -22 40 -46 56
-53z m1090 -140 c-4 -7 -24 -36 -45 -63 -36 -50 -204 -324 -211 -345 -2 -7
-27 -10 -64 -8 l-61 3 83 200 c46 110 86 205 88 211 3 8 42 12 111 13 85 2
105 -1 99 -11z m-999 -20 c-6 -29 -52 -426 -61 -531 -4 -44 -12 -80 -18 -81
-6 -2 -40 -10 -74 -19 l-64 -15 6 23 c3 13 15 155 26 316 11 161 21 293 23
295 5 5 122 32 145 33 18 1 21 -3 17 -21z m555 -38 c-15 -48 -33 -76 -93 -143
-76 -84 -219 -259 -214 -263 1 -1 46 1 100 5 l99 6 -6 -35 c-3 -19 -6 -49 -6
-66 l0 -31 -102 -6 c-57 -4 -146 -13 -198 -21 -52 -8 -95 -14 -96 -13 -1 1 -4
29 -8 63 l-7 60 77 105 c43 57 104 137 137 177 33 40 58 75 56 76 -5 4 -113
-9 -156 -18 l-33 -8 0 70 0 71 55 6 c85 11 241 22 332 24 l81 1 -18 -60z
m-841 -122 c0 -84 -4 -205 -8 -269 -7 -98 -12 -123 -35 -165 -49 -89 -156
-141 -229 -111 -49 21 -66 52 -83 149 -21 121 -55 461 -46 469 8 8 155 49 160
44 2 -1 6 -117 11 -257 4 -140 11 -260 15 -266 4 -7 16 -12 27 -12 36 0 41 42
37 300 l-3 245 55 11 c109 23 100 36 99 -138z m-603 11 c81 -50 138 -232 116
-367 l-9 -53 56 -36 c31 -19 58 -37 60 -39 6 -6 -52 -144 -61 -144 -5 0 -30
16 -55 35 -47 36 -63 42 -63 26 0 -19 -53 -72 -91 -91 -50 -26 -88 -25 -130 3
-77 51 -131 158 -150 295 -24 169 43 325 161 376 52 22 126 20 166 -5z m1407
-116 c-36 -106 -49 -133 -64 -133 -21 0 -35 21 -44 70 -6 33 -1 40 71 118 42
46 78 82 79 80 2 -2 -17 -63 -42 -135z m-448 10 c-9 -16 -29 -44 -45 -63 l-29
-35 5 45 c8 63 12 73 29 66 8 -3 15 -1 15 4 0 6 9 10 21 10 19 0 19 -1 4 -27z
m285 -144 c0 -5 -7 -9 -15 -9 -9 0 -12 6 -9 15 6 15 24 11 24 -6z m329 -74
c50 -25 55 -73 13 -115 -45 -45 -128 -52 -166 -14 -19 19 -21 84 -3 106 31 39
105 50 156 23z m-291 -205 c17 -16 38 -30 46 -30 9 0 16 -6 16 -14 0 -8 11
-28 25 -44 l24 -29 -60 -17 c-80 -22 -149 -88 -169 -161 -7 -28 -14 -51 -16
-53 -1 -2 -20 6 -43 17 -27 14 -59 21 -97 21 -81 0 -134 -33 -169 -104 l-27
-54 -35 24 c-74 50 -148 56 -238 19 -35 -15 -61 -21 -63 -15 -2 6 -18 32 -35
57 -45 66 -110 98 -198 97 l-67 0 -5 48 c-4 35 -1 57 11 81 9 17 18 33 18 35
1 1 13 -3 28 -9 19 -9 26 -20 26 -40 0 -28 1 -28 49 -22 84 10 155 -26 191
-97 l20 -39 52 24 c29 14 69 25 88 25 37 0 113 -30 124 -49 11 -17 26 -13 26
7 0 28 37 81 72 102 42 25 103 26 150 1 39 -22 48 -19 48 14 0 37 58 112 104
134 23 12 52 21 64 21 27 0 27 5 2 37 -40 51 -9 61 38 13z m-93 10 c3 -5 -3
-10 -15 -10 -31 0 -95 -36 -119 -66 -12 -15 -24 -44 -27 -64 l-6 -37 -39 18
c-77 38 -144 16 -181 -58 l-25 -50 -22 18 c-52 43 -140 44 -197 4 -20 -14 -22
-13 -34 15 -15 37 -74 90 -100 90 -23 0 -35 16 -17 23 7 2 41 29 76 58 l64 53
-5 -52 c-5 -53 6 -68 31 -39 6 8 39 22 73 31 35 10 78 24 96 32 41 18 42 17
42 -2 0 -12 6 -15 23 -10 142 39 369 66 382 46z"/>
<path d="M535 898 c-38 -30 -55 -76 -55 -151 0 -142 63 -223 130 -169 l22 18
-26 17 c-33 22 -33 34 4 85 22 28 36 39 47 35 14 -5 15 0 9 46 -17 125 -66
170 -131 119z"/>
</g>
</svg>
